<svg xmlns="http://www.w3.org/2000/svg" viewBox="0 0 400 400">
	<path fill="gray" d="M170.286 70.000 L 170.286 82.857 131.714 82.857 L 93.143 82.857 93.143 108.286 L 93.143 133.714 99.375 133.714 L 105.608 133.714 105.969 139.000 C 106.168 141.907,107.346 162.029,108.586 183.714 C 110.641 219.621,112.228 246.635,116.293 314.857 C 117.070 327.900,117.873 341.079,118.077 344.143 L 118.449 349.714 204.888 349.714 L 291.326 349.714 291.684 345.000 C 291.881 342.407,292.802 327.429,293.729 311.714 C 300.807 191.791,304.000 136.616,304.000 134.236 C 304.000 132.982,304.066 132.972,310.286 133.328 L 316.571 133.688 316.571 108.272 L 316.571 82.857 278.000 82.857 L 239.429 82.857 239.429 70.000 L 239.429 57.143 204.857 57.143 L 170.286 57.143 170.286 70.000 M220.000 79.714 L 220.000 82.857 204.857 82.857 L 189.714 82.857 189.714 79.714 L 189.714 76.571 204.857 76.571 L 220.000 76.571 220.000 79.714 M297.143 108.000 L 297.143 113.714 205.143 113.714 L 113.143 113.714 113.143 108.000 L 113.143 102.286 205.143 102.286 L 297.143 102.286 297.143 108.000 M284.287 137.857 C 284.105 140.136,283.188 155.629,282.249 172.286 C 280.570 202.096,275.675 285.279,273.999 312.473 C 273.528 320.119,273.143 327.384,273.143 328.618 L 273.143 330.862 205.000 330.717 L 136.857 330.571 136.168 318.857 C 135.789 312.414,133.542 274.229,131.173 234.000 C 128.805 193.771,126.607 155.843,126.288 149.714 C 125.970 143.586,125.587 137.479,125.437 136.143 L 125.165 133.714 204.892 133.714 L 284.619 133.714 284.287 137.857 M154.286 153.536 C 148.101 154.002,146.287 155.583,146.282 160.512 C 146.278 165.178,153.652 306.814,154.011 308.936 C 154.928 314.368,167.552 316.072,171.945 311.356 C 173.594 309.585,173.678 312.280,169.418 230.000 C 165.495 154.246,165.656 156.073,162.726 154.287 C 160.914 153.182,160.031 153.103,154.286 153.536 M197.892 154.258 C 194.785 156.153,194.864 154.091,194.860 233.875 C 194.857 314.116,194.723 310.658,197.902 312.740 C 200.709 314.580,210.377 314.127,212.705 312.047 L 214.571 310.380 214.720 234.316 C 214.884 150.669,215.097 155.897,211.447 154.010 C 208.849 152.666,200.244 152.824,197.892 154.258 M247.576 153.962 C 244.089 155.536,244.370 152.534,240.304 231.714 C 235.904 317.398,236.116 309.186,238.238 311.562 C 241.955 315.726,254.601 314.319,255.692 309.620 C 256.077 307.964,263.429 166.933,263.429 161.209 C 263.429 155.750,261.755 153.714,257.267 153.714 C 255.715 153.714,253.316 153.582,251.937 153.420 C 250.365 153.236,248.737 153.438,247.576 153.962"/>
</svg>